<svg width="446" height="342" viewBox="0 0 446 342" fill="none" xmlns="http://www.w3.org/2000/svg">
<path d="M56.3406 341.215C82.8546 336.793 151.899 322.367 171.502 312.753C280.215 260.361 332.145 78.9458 332.789 77.1724H420.316C419.664 78.906 409.349 108.601 365.689 191.499C338.698 240.758 299.635 273.594 253.557 300.569C174.421 346.861 56.3406 341.215 56.3406 341.215Z" fill="#80BCFF"/>
<g opacity="0.1">
<path d="M56.3406 341.215C82.8546 336.793 151.899 322.367 171.502 312.753C280.215 260.361 332.145 78.9458 332.789 77.1724H420.316C419.664 78.906 409.349 108.601 365.689 191.499C338.698 240.758 299.635 273.594 253.557 300.569C174.421 346.861 56.3406 341.215 56.3406 341.215Z" fill="black"/>
</g>
<path d="M312.454 68.0825L332.789 77.1724C332.232 78.6515 305.138 218.252 222.248 285.26C164.082 332.276 126.856 343.314 0.489258 341.438V316.88C71.8003 316.88 122.673 314.574 169.085 290.358C273.828 235.716 312.295 68.4881 312.454 68.0825Z" fill="#80BCFF"/>
<path d="M312.454 68.0825H406.788L420.316 77.1724H332.789L312.454 68.0825Z" fill="#80BCFF"/>
<path d="M384.306 9.63086L445.645 87.1927L301.082 86.803L384.306 9.63086Z" fill="#80BCFF"/>
<g opacity="0.1">
<path d="M384.306 9.63086L445.645 87.1927L301.082 86.803L384.306 9.63086Z" fill="black"/>
</g>
<path d="M301.082 86.8028L280.055 77.1721L363.279 0L384.306 9.63061L301.082 86.8028Z" fill="#80BCFF"/>
</svg>
