<svg width="178" height="306" viewBox="0 0 178 306" fill="none" xmlns="http://www.w3.org/2000/svg">
<path d="M1.10098 305.787C2.89827 306.368 54.1051 305.708 56.0376 304.443C56.7772 303.974 57.1192 296.49 57.2703 287.472V287.186C57.2703 285.325 52.4987 254.103 52.4987 254.103L18.2468 254.445L24.1874 287.25V287.806C24.1874 287.806 4.70351 296.832 2.71536 298.447C0.727205 300.061 -0.696312 305.214 1.10098 305.787Z" fill="#FBC6BF"/>
<path d="M57.2704 287.186V287.472C57.1193 296.498 56.7774 303.966 56.0378 304.443C54.1053 305.699 2.89842 306.367 1.10908 305.787C-0.680254 305.206 0.822794 300.053 2.77914 298.447C4.73548 296.84 24.2512 287.814 24.2512 287.814V287.241L23.3525 282.295H56.7137C57.0557 284.919 57.2784 286.78 57.2704 287.186Z" fill="#EBEBEB"/>
<path d="M1.10102 305.787C2.02353 306.081 15.9326 306.049 29.5316 305.787C32.2673 305.731 34.9871 305.668 37.5796 305.596C47.2739 305.334 55.2901 304.928 56.0297 304.443C56.7693 303.958 57.1033 296.721 57.2544 287.854C57.2544 287.727 57.2544 287.607 57.2544 287.48C57.2544 287.353 57.2544 287.281 57.2544 287.186H57.2146L24.2113 287.249V287.814C24.2113 287.814 4.72741 296.832 2.73926 298.447C0.751107 300.061 -0.696267 305.214 1.10102 305.787Z" fill="#80BCFF"/>
<path d="M1.65778 303.799C10.2864 303.473 45.1188 303.004 53.6758 303.314C53.7474 303.314 53.7474 303.369 53.6758 303.369C45.1268 303.878 10.2943 304.085 1.65778 303.934C1.47487 303.934 1.47487 303.799 1.65778 303.799Z" fill="#263238"/>
<path d="M20.5532 287.393C23.941 286.709 28.1002 287.178 30.7325 289.564C30.8359 289.659 30.7325 289.802 30.5894 289.771C27.3297 288.76 23.9699 288.107 20.5691 287.822C20.5409 287.823 20.5128 287.819 20.4863 287.809C20.4599 287.799 20.4356 287.784 20.4149 287.765C20.3943 287.746 20.3776 287.723 20.3658 287.697C20.3541 287.671 20.3475 287.644 20.3464 287.615C20.3454 287.587 20.3499 287.559 20.3597 287.533C20.3696 287.506 20.3845 287.482 20.4037 287.461C20.4229 287.441 20.446 287.424 20.4716 287.412C20.4973 287.4 20.525 287.394 20.5532 287.393Z" fill="#263238"/>
<path d="M18.1197 288.896C21.5075 288.22 25.6747 288.689 28.299 291.075C28.4024 291.17 28.299 291.313 28.1559 291.273C24.8968 290.271 21.5406 289.618 18.1435 289.325C18.0866 289.328 18.0307 289.309 17.9882 289.271C17.9457 289.233 17.9201 289.179 17.9169 289.122C17.9137 289.065 17.9333 289.009 17.9714 288.967C18.0094 288.924 18.0627 288.899 18.1197 288.896Z" fill="#263238"/>
<path d="M15.6861 290.407C19.0739 289.731 23.2411 290.2 25.8655 292.586C25.9688 292.673 25.8655 292.816 25.7223 292.784C22.4633 291.782 19.107 291.129 15.71 290.836C15.653 290.839 15.5972 290.82 15.5547 290.782C15.5122 290.744 15.4865 290.69 15.4833 290.633C15.4802 290.576 15.4998 290.52 15.5378 290.478C15.5758 290.435 15.6292 290.41 15.6861 290.407Z" fill="#263238"/>
<path d="M20.5533 287.146H58.352C58.352 287.146 46.7015 210.801 46.9957 209.306C47.1389 208.511 99.9363 129.199 99.9363 129.199H60.5947C60.5947 129.199 16.2191 185.941 11.2249 200.232C7.59849 210.65 20.5533 287.146 20.5533 287.146Z" fill="#263238"/>
<path d="M42.2638 206.387C42.8125 204.176 44.077 202.22 45.2381 200.287C47.8704 195.937 93.2321 133.072 93.8683 132.038C93.916 131.959 94.0432 131.998 94.0035 132.038C92.2062 135.816 47.3853 197.082 44.6019 202.912C43.5442 205.138 42.6296 207.198 42.6773 209.695C42.8113 212.202 43.0768 214.7 43.4726 217.179C43.8013 219.686 44.1327 222.189 44.4667 224.686C45.1453 229.696 45.8478 234.698 46.5741 239.693C48.0427 249.729 49.5669 259.762 51.1469 269.793C51.3457 271.042 51.5524 272.29 51.7592 273.531C51.7592 273.65 51.6002 273.698 51.5763 273.579C49.779 263.55 48.0295 253.522 46.5105 243.446C44.9916 233.37 43.6158 223.278 42.2797 213.171C41.8502 210.93 41.8448 208.629 42.2638 206.387Z" fill="#455A64"/>
<path d="M53.8904 278.191C48.3236 278.191 49.9141 278.088 44.4348 278.152C41.7309 278.152 23.9886 278.39 21.4756 278.947C21.4199 278.947 21.4199 279.066 21.4756 279.074C24.0125 279.504 41.7468 278.939 44.4507 278.843C49.9618 278.661 48.3793 278.645 53.8904 278.39C53.9938 278.398 53.9938 278.191 53.8904 278.191Z" fill="#37474F"/>
<path d="M176.934 305.294C175.144 305.906 123.937 306.177 121.981 304.952C121.233 304.491 120.756 296.999 120.446 288.005C120.446 287.91 120.446 287.814 120.446 287.719C120.375 285.866 107.603 254.97 107.603 254.97L141.075 254.699L153.473 287.146V287.711C153.473 287.711 173.124 296.371 175.136 297.946C177.148 299.52 178.715 304.69 176.934 305.294Z" fill="#FBC6BF"/>
<path d="M176.933 305.294C175.144 305.906 123.937 306.177 121.981 304.952C121.233 304.491 120.756 296.999 120.446 288.005C120.446 287.909 120.446 287.814 120.446 287.719C120.446 287.623 117.973 281.524 117.965 281.253L151.008 280.895L153.481 287.178V287.742C153.481 287.742 173.132 296.403 175.144 297.977C177.156 299.552 178.715 304.689 176.933 305.294Z" fill="#EBEBEB"/>
<path d="M176.933 305.294C175.144 305.906 123.937 306.177 121.981 304.952C121.233 304.491 120.756 296.999 120.446 288.005C120.446 287.909 120.446 287.814 120.446 287.719L153.481 287.178V287.742C153.481 287.742 173.132 296.403 175.144 297.977C177.156 299.552 178.715 304.689 176.933 305.294Z" fill="#80BCFF"/>
<path d="M176.345 303.314C167.708 303.147 132.868 303.314 124.327 303.783C124.255 303.783 124.255 303.831 124.327 303.839C132.876 304.189 167.716 303.759 176.345 303.449C176.528 303.449 176.528 303.314 176.345 303.314Z" fill="#263238"/>
<path d="M157.187 287.25C153.791 286.637 149.64 287.178 147.055 289.635C146.952 289.731 147.055 289.874 147.199 289.842C150.439 288.773 153.785 288.055 157.179 287.703C157.239 287.704 157.297 287.681 157.34 287.639C157.384 287.597 157.409 287.54 157.41 287.48C157.411 287.42 157.388 287.362 157.346 287.319C157.304 287.275 157.247 287.251 157.187 287.25Z" fill="#263238"/>
<path d="M159.613 288.737C156.209 288.116 152.058 288.657 149.473 291.122C149.37 291.21 149.513 291.353 149.616 291.321C152.847 290.243 156.186 289.515 159.573 289.15C159.62 289.143 159.663 289.12 159.695 289.085C159.728 289.05 159.748 289.006 159.752 288.959C159.757 288.911 159.746 288.864 159.72 288.824C159.695 288.784 159.657 288.753 159.613 288.737Z" fill="#263238"/>
<path d="M162.07 290.184C158.666 289.564 154.515 290.112 151.93 292.57C151.835 292.665 151.97 292.8 152.082 292.769C155.319 291.701 158.663 290.986 162.054 290.637C162.114 290.639 162.173 290.618 162.217 290.577C162.261 290.536 162.287 290.479 162.289 290.419C162.291 290.358 162.269 290.3 162.228 290.256C162.187 290.212 162.13 290.186 162.07 290.184Z" fill="#263238"/>
<path d="M64.7298 129.231C64.7298 129.231 69.4457 157.972 69.7638 158.894C69.7638 158.894 71.5214 159.689 74.6786 161.185L112.851 287.051L155.127 287.202L104.97 129.231H64.7298Z" fill="#263238"/>
<path d="M68.2291 158.004C71.8975 159.534 75.4258 161.381 78.7742 163.523C78.7971 163.541 78.8129 163.566 78.8192 163.595C78.8255 163.623 78.8218 163.653 78.8088 163.679C78.7957 163.705 78.7741 163.726 78.7476 163.738C78.721 163.75 78.6911 163.753 78.6629 163.745C75.1081 162.012 71.5055 160.35 68.0143 158.425C67.9667 158.392 67.9326 158.343 67.9183 158.287C67.9041 158.231 67.9108 158.172 67.937 158.12C67.9633 158.069 68.0074 158.028 68.0611 158.007C68.1148 157.986 68.1745 157.984 68.2291 158.004Z" fill="#455A64"/>
<path d="M69.589 141.542C70.1696 144.977 70.4877 148.469 70.8774 151.936L71.1637 154.433C71.1839 155.199 71.3885 155.95 71.7601 156.62C72.5077 157.781 73.8437 158.322 75.0604 158.855C75.1956 158.91 75.14 159.133 74.9889 159.085C73.6829 158.772 72.4767 158.135 71.4818 157.232C70.3764 156.063 70.4082 154.29 70.2412 152.787C69.7579 149.063 69.4924 145.313 69.4459 141.558C69.43 141.47 69.5731 141.446 69.589 141.542Z" fill="#455A64"/>
<path d="M73.7721 142.592C73.8914 145.073 74.1698 147.554 74.3765 150.019C74.4799 151.244 74.5674 152.461 74.639 153.685C74.7105 154.91 74.8616 156.198 74.8219 157.447C74.8219 157.527 74.6867 157.55 74.6708 157.447C74.464 156.27 74.4402 155.061 74.3368 153.852C74.2334 152.644 74.1539 151.347 74.0823 150.091C73.9391 147.594 73.8755 145.073 73.6449 142.576C73.6847 142.512 73.7642 142.52 73.7721 142.592Z" fill="#455A64"/>
<path d="M79.1718 166.465C82.0983 173.623 113.368 275.893 113.71 276.784C113.71 276.856 113.622 276.895 113.591 276.832C109.408 268.649 82.7186 176.366 80.0466 169.177L79.0445 166.505C79.0286 166.442 79.14 166.394 79.1718 166.465Z" fill="#455A64"/>
<path d="M112.549 279.989C113.774 279.822 115.038 279.822 116.271 279.734C117.503 279.647 118.744 279.631 119.985 279.599C122.466 279.544 124.947 279.512 127.428 279.48C132.348 279.427 137.274 279.4 142.204 279.4C145.011 279.4 147.827 279.551 150.634 279.615C150.645 279.611 150.656 279.61 150.668 279.612C150.679 279.613 150.69 279.618 150.699 279.624C150.708 279.631 150.716 279.64 150.721 279.65C150.726 279.66 150.729 279.671 150.729 279.683C150.729 279.694 150.726 279.705 150.721 279.716C150.716 279.726 150.708 279.734 150.699 279.741C150.69 279.748 150.679 279.752 150.668 279.754C150.656 279.755 150.645 279.754 150.634 279.75C148.161 279.854 145.68 280.005 143.198 280.1C140.717 280.196 138.244 280.204 135.763 280.243C130.76 280.315 125.766 280.394 120.772 280.379C119.38 280.379 117.996 280.379 116.605 280.331C115.213 280.283 113.869 280.331 112.533 280.132C112.446 280.1 112.477 279.989 112.549 279.989Z" fill="#455A64"/>
<path d="M78.806 86.8435C70.925 80.211 59.4891 64.7034 57.4691 58.7946C54.8607 51.184 51.3059 25.3936 54.0893 22.65C55.6321 21.139 73.7004 25.0358 74.5832 27.1989C75.4659 29.362 74.106 51.6611 74.2571 53.3789C74.4082 55.0967 81.4145 71.7892 85.4783 79.8054C90.218 89.1815 83.9434 91.1697 78.806 86.8435Z" fill="#FBC6BF"/>
<path d="M53.3814 30.2769C52.7446 28.8007 52.5942 27.1601 52.952 25.5928C53.6439 23.0957 55.6002 20.5429 55.2423 18.9683C54.6777 16.4632 52.6498 12.3596 53.6518 11.5564C55.6956 9.88638 57.9622 11.3338 60.3241 16.0417C60.9364 17.2664 61.7476 20.2964 62.6144 20.519C64.1254 20.9167 65.0002 18.2843 65.374 15.8349C66.1136 11.0634 66.2249 4.08097 69.4537 3.43681C70.6784 3.19823 71.0998 4.97167 71.1794 7.12682C71.5531 4.04121 72.2768 1.00331 73.6208 0.677256C73.9684 0.596028 74.3338 0.651424 74.6417 0.831992C74.9495 1.01256 75.1763 1.3045 75.275 1.64748C75.3639 1.29159 75.5565 0.970112 75.8283 0.723774C76.1001 0.477437 76.439 0.317325 76.8019 0.263723C78.0425 0.160339 78.806 1.32142 79.2672 2.90399C79.3827 2.78994 79.5238 2.70516 79.6788 2.65674C79.8337 2.60832 79.998 2.59766 80.1579 2.62565C83.4503 2.95966 83.8956 15.0238 82.496 17.9265C79.5853 23.6362 75.9032 28.9185 71.5532 33.6249C67.0043 34.619 53.3814 30.2769 53.3814 30.2769Z" fill="#FBC6BF"/>
<path d="M69.5093 20.9403C70.6448 19.0227 71.3401 16.8768 71.5451 14.6577C71.7598 12.0493 71.2668 9.4408 71.2191 6.84029C71.2191 6.76872 71.1077 6.77667 71.1077 6.84029C71.1952 8.11271 71.1077 9.40103 71.1793 10.6735C71.2509 11.9459 71.2747 13.1785 71.1793 14.4271C71.0973 16.6951 70.4989 18.9145 69.4297 20.9164L69.5093 20.9403Z" fill="#263238"/>
<path d="M73.6371 22.0779C74.7426 19.7866 75.6113 17.3884 76.2296 14.9206C76.8102 12.2167 76.4284 9.42531 76.0944 6.70552C75.8983 5.07789 75.6623 3.45025 75.3866 1.82262C75.3866 1.759 75.2673 1.759 75.2753 1.82262C75.6411 4.59808 75.9274 7.38944 76.1262 10.1888C76.3311 12.7853 76.0175 15.3967 75.2037 17.871C74.7424 19.2866 74.1699 20.6624 73.6132 22.0302C73.5893 22.0859 73.6291 22.1018 73.6371 22.0779Z" fill="#263238"/>
<path d="M77.9393 22.2205C79.0447 20.0813 80.0229 18.2442 80.3251 15.8028C80.5933 12.9988 80.5105 10.1724 80.0785 7.38892C79.8718 5.88588 79.6173 4.39874 79.3389 2.90365C79.3389 2.84798 79.2196 2.90365 79.2276 2.90365C79.7802 6.23963 80.1149 9.60807 80.2296 12.9876C80.3095 14.5944 80.1405 16.2039 79.7286 17.7591C79.2393 19.2812 78.6249 20.7601 77.8916 22.1808C77.8916 22.1808 77.9313 22.2285 77.9393 22.2205Z" fill="#263238"/>
<path d="M75.6408 34.7222L52.0852 37.7124C52.0852 37.7124 55.4889 56.2499 57.1431 60.6238C58.7972 64.9978 73.2948 84.6328 79.2752 88.458C85.2555 92.2832 89.6136 89.2532 86.4325 80.5054C83.2515 71.7575 75.9987 55.1365 75.617 53.3392C75.2352 51.5419 75.6408 34.7222 75.6408 34.7222Z" fill="#455A64"/>
<path d="M82.838 71.336L67.3225 75.702C65.3661 73.2128 63.4893 70.6759 61.8908 68.3856L79.5695 63.4072C80.6192 65.9203 81.7485 68.6639 82.838 71.336Z" fill="#37474F"/>
<path d="M74.114 40.8854C70.9329 41.4262 57.6123 43.1837 54.7096 43.3746C54.5108 43.3746 54.4551 43.2633 54.6619 43.2235C61.0883 42.0491 67.574 41.2261 74.0901 40.7582C74.1696 40.7502 74.2014 40.8695 74.114 40.8854Z" fill="#263238"/>
<path opacity="0.1" d="M79.2514 88.4342C74.9728 85.7144 66.3283 74.9148 61.1512 67.3359L83.4185 72.7596C84.5796 75.6146 85.6452 78.3264 86.4564 80.5134C89.6454 89.2056 85.2476 92.2356 79.2514 88.4342Z" fill="black"/>
<path d="M108.167 140.222C108.167 140.222 52.1885 139.18 52.0852 139.069C51.9818 138.957 59.5447 90.5576 67.0201 77.0382C69.8274 71.9485 79.6012 72.3223 83.2673 75.1773C92.4367 82.3107 108.318 136.969 108.167 140.222Z" fill="#455A64"/>
<path d="M106.29 132.07L53.3497 131.275C53.6519 129.517 54.0018 127.529 54.3915 125.374L104.596 126.098C105.24 128.309 105.813 130.313 106.29 132.07Z" fill="#37474F"/>
<path d="M107.284 135.855L52.7295 135.06C52.8249 134.487 52.9282 133.851 53.0475 133.175L106.799 133.971C106.974 134.639 107.141 135.251 107.284 135.855Z" fill="#37474F"/>
<path d="M69.1197 81.2608C71.5691 82.0561 78.798 78.0798 80.5476 74.2546C80.6669 73.9921 80.0863 71.3519 79.5296 68.1072C79.2036 66.1429 78.8775 63.94 78.7344 61.9121L66.2408 65.9282C67.1508 68.4116 67.7543 70.9967 68.0381 73.6263C68.0665 73.9039 68.0665 74.1837 68.0381 74.4613C68.0381 74.5011 68.0381 74.5488 68.0381 74.6045C67.8552 76.203 66.2965 80.3781 69.1197 81.2608Z" fill="#FBC6BF"/>
<path d="M78.0904 62.0869C77.8518 64.8624 76.4999 73.8568 69.3425 74.5487C68.9034 74.5878 68.4616 74.5878 68.0224 74.5487C68.0224 74.493 68.0224 74.4453 68.0224 74.4055C68.0468 74.1277 68.0468 73.8483 68.0224 73.5705C67.7442 70.9433 67.1432 68.3605 66.2331 65.8803L78.0904 62.0869Z" fill="#263238"/>
<path d="M83.6652 51.3748C83.8163 56.1066 78.0984 68.0753 74.2095 70.0396C68.6427 72.8946 61.1355 71.2722 59.1473 64.9261C57.2148 58.7707 64.9686 43.3029 69.1279 41.6885C75.2752 39.3187 83.4584 44.4004 83.6652 51.3748Z" fill="#FBC6BF"/>
<path opacity="0.3" d="M79.8718 62.8824C78.0824 66.2543 75.959 69.1888 74.2174 70.0397C68.6029 72.8947 61.1354 71.2724 59.1472 64.9262C58.4553 62.7154 59.0041 59.3037 60.197 55.7568C60.8729 58.246 64.3005 57.411 64.3005 57.411L65.7479 57.9756C66.4318 60.926 70.9489 61.9519 73.7005 61.2282C75.6966 60.7272 78.1858 57.2917 78.1858 57.2917L79.8718 62.8824Z" fill="#263238"/>
<path d="M80.3965 61.7454C78.4004 61.634 78.0107 59.7334 77.8278 58.445C77.4779 55.7571 80.5635 51.4785 80.2136 48.3691C80.1243 47.4511 79.7266 46.5905 79.0853 45.9275C78.4441 45.2646 77.5971 44.8386 76.6826 44.7188C75.0364 44.6552 72.4359 45.9674 71.3623 45.5141C70.2887 45.0608 70.8374 42.5557 70.066 42.333C68.3801 41.7525 65.1752 45.4505 64.2368 47.208C64.2368 47.208 67.2826 38.7862 75.6408 40.8459C83.7922 42.8102 84.3887 48.9258 84.2456 51.5422C84.0229 56.4728 80.3965 61.7454 80.3965 61.7454Z" fill="#263238"/>
<path d="M69.0004 55.5503C69.0004 55.5503 69.0004 55.6219 69.0004 55.6537C68.579 56.4489 68.2052 57.4112 68.8175 58.0395C68.8175 58.0395 68.8175 58.0951 68.8175 58.0792C67.9905 57.5146 68.4676 56.2263 69.0004 55.5503Z" fill="#263238"/>
<path d="M70.1297 55.0652C71.4658 55.606 70.2808 58.2463 69.0482 57.7373C67.8155 57.2283 69.0084 54.6119 70.1297 55.0652Z" fill="#263238"/>
<path d="M64.4993 53.3394C64.4993 53.3394 64.4118 53.3394 64.4039 53.3871C64.0619 54.1823 63.5291 55.1048 62.6702 55.0412C62.6702 55.0412 62.6702 55.0412 62.6702 55.0889C63.6166 55.3752 64.3084 54.1903 64.4993 53.3394Z" fill="#263238"/>
<path d="M64.1413 52.1704C62.8689 51.4864 61.5885 54.071 62.7655 54.7072C63.9425 55.3435 65.2149 52.743 64.1413 52.1704Z" fill="#263238"/>
<path d="M72.4677 53.3392C72.0766 53.2777 71.689 53.1954 71.3067 53.0927C70.8859 53.0673 70.4857 52.9021 70.1694 52.6235C70.0882 52.5158 70.0442 52.3846 70.0442 52.2497C70.0442 52.1148 70.0882 51.9836 70.1694 51.8759C70.3643 51.6887 70.6055 51.5568 70.8683 51.4939C71.1312 51.431 71.406 51.4393 71.6645 51.5181C72.2121 51.5982 72.7092 51.8823 73.0562 52.3133C73.1279 52.4148 73.1691 52.5347 73.1749 52.6588C73.1808 52.783 73.151 52.9062 73.0892 53.014C73.0274 53.1218 72.936 53.2096 72.8259 53.2673C72.7158 53.3249 72.5915 53.3498 72.4677 53.3392Z" fill="#263238"/>
<path d="M63.6483 50.4286C64.0059 50.5941 64.3723 50.7402 64.7458 50.866C65.1113 51.0769 65.5364 51.1608 65.9546 51.1045C66.0822 51.0611 66.1918 50.9767 66.2666 50.8646C66.3414 50.7524 66.3771 50.6187 66.3681 50.4842C66.3108 50.2211 66.1839 49.9783 66.0006 49.781C65.8173 49.5838 65.5845 49.4394 65.3263 49.3629C64.8301 49.1243 64.2621 49.0817 63.7358 49.2436C63.6154 49.2839 63.5097 49.3589 63.4318 49.4592C63.3539 49.5594 63.3073 49.6804 63.298 49.807C63.2886 49.9336 63.3169 50.0601 63.3792 50.1707C63.4415 50.2813 63.5352 50.371 63.6483 50.4286Z" fill="#263238"/>
<path d="M67.3224 59.9956C66.9732 60.2218 66.5815 60.3744 66.1713 60.4442C65.7611 60.5139 65.341 60.4993 64.9366 60.4012C64.5792 60.3169 64.2361 60.1802 63.9187 59.9956C63.8551 59.966 63.794 59.9314 63.7358 59.8923L63.5688 59.7809C63.5298 59.7528 63.501 59.7128 63.4867 59.6669C63.4724 59.621 63.4733 59.5718 63.4892 59.5264L63.5369 59.4469V59.3753C63.8073 58.7391 64.3322 57.7848 64.3322 57.7848C64.0539 57.7848 62.6463 57.7848 62.8133 57.4747C64.1517 54.6653 65.7745 52.0005 67.6564 49.5221C67.6704 49.5094 67.6881 49.5016 67.7069 49.4999C67.7257 49.4981 67.7446 49.5025 67.7607 49.5124C67.7768 49.5222 67.7892 49.537 67.7962 49.5545C67.8032 49.572 67.8044 49.5913 67.7995 49.6095C66.5669 52.2021 64.8968 54.564 63.6244 57.1486C64.1267 57.1416 64.6273 57.2059 65.1115 57.3395C65.1911 57.4031 64.1414 59.1129 64.0459 59.4151C64.5378 59.6971 65.0815 59.8769 65.6445 59.9439C66.2074 60.0109 66.7781 59.9635 67.3224 59.8048C67.3781 59.8684 67.4178 59.9479 67.3224 59.9956Z" fill="#263238"/>
<path d="M64.4197 59.8447C64.5688 60.4399 64.8672 60.9873 65.2866 61.4352C65.5218 61.678 65.8281 61.8396 66.1613 61.8965C66.885 62.0158 67.1714 61.4273 67.2827 60.8627C67.3404 60.5615 67.3591 60.2541 67.3384 59.9481C66.3793 60.225 65.3568 60.1888 64.4197 59.8447Z" fill="#263238"/>
<path d="M65.2867 61.4588C65.5219 61.7016 65.8283 61.8631 66.1615 61.92C66.8852 62.0393 67.1715 61.4508 67.2829 60.8862C66.9344 60.7423 66.5474 60.7205 66.185 60.8245C65.8225 60.9285 65.506 61.152 65.2867 61.4588Z" fill="#FF9CBD"/>
<path d="M67.8316 59.9715C67.0206 59.4118 66.4647 58.5533 66.2858 57.5842C66.1069 56.6152 66.3196 55.6148 66.8773 54.8023C67.2688 54.2261 67.8146 53.7716 68.4521 53.4908C69.0897 53.21 69.7934 53.1142 70.4828 53.2143C71.1723 53.3145 71.8197 53.6065 72.351 54.0571C72.8824 54.5076 73.2763 55.0986 73.4877 55.7623C73.6992 56.4261 73.7197 57.136 73.5469 57.8109C73.374 58.4858 73.0149 59.0985 72.5104 59.579C72.0059 60.0594 71.3765 60.3883 70.694 60.5281C70.0115 60.6678 69.3034 60.6127 68.6507 60.3692C68.3633 60.2684 68.0885 60.135 67.8316 59.9715ZM67.2829 55.0807C66.917 55.6027 66.7143 56.2216 66.7004 56.8589C66.6865 57.4962 66.8621 58.1233 67.2048 58.6608C67.5476 59.1983 68.0421 59.622 68.6258 59.8782C69.2095 60.1345 69.8561 60.2118 70.4837 60.1003C71.1114 59.9888 71.6918 59.6936 72.1516 59.252C72.6113 58.8104 72.9297 58.2423 73.0664 57.6197C73.2031 56.997 73.1519 56.3479 72.9194 55.7543C72.6868 55.1608 72.2834 54.6496 71.7602 54.2854C71.5425 54.131 71.3043 54.0079 71.0524 53.9196C70.3892 53.6791 69.6656 53.6624 68.992 53.8721C68.3185 54.0818 67.7321 54.5063 67.3226 55.0807H67.2829Z" fill="#263238"/>
<path d="M60.849 56.3929C59.4891 55.701 59.1391 53.6572 60.0537 51.8281C60.4599 50.9961 61.1161 50.3121 61.9305 49.8717C62.2678 49.659 62.6546 49.5373 63.0529 49.5186C63.4513 49.5 63.8477 49.5849 64.2034 49.7652C64.5591 49.9455 64.862 50.2149 65.0825 50.5472C65.303 50.8794 65.4336 51.2632 65.4615 51.6611C65.5859 52.5797 65.4191 53.5143 64.9843 54.3331C64.1095 56.0668 62.3997 56.9814 61.0637 56.4962L60.849 56.3929ZM62.1612 50.3091C61.4434 50.7053 60.8657 51.3136 60.507 52.0507C59.7117 53.6413 59.9583 55.3829 61.0716 55.9555C62.185 56.528 63.7517 55.693 64.5549 54.1105C64.9429 53.3793 65.093 52.5452 64.9843 51.7247C64.9523 51.4094 64.8454 51.1063 64.6725 50.8406C64.4996 50.575 64.2656 50.3546 63.9902 50.1978L63.8153 50.1182C63.5415 50.0332 63.2529 50.0062 62.9681 50.0391C62.6832 50.0719 62.4084 50.1639 62.1612 50.3091Z" fill="#263238"/>
<path d="M66.7896 55.2399L67.2508 55.049C66.9645 54.3651 66.0897 53.2119 64.865 53.6652L65.032 54.1344C66.1295 53.7209 66.7657 55.1762 66.7896 55.2399Z" fill="#263238"/>
<path d="M81.1202 63.5903H81.6371C81.6371 63.3597 81.5894 61.3079 80.6828 60.6478C79.7762 59.9878 73.613 57.5702 73.3505 57.4668L73.1676 57.928C74.9569 58.6358 79.7365 60.5683 80.3965 61.0455C81.0566 61.5226 81.1202 63.0257 81.1202 63.5903Z" fill="#263238"/>
<path d="M77.3506 59.2797C77.3506 59.2797 81.3746 56.0589 82.9174 57.6096C84.4602 59.1604 80.6032 64.4091 78.2095 64.5841C77.9035 64.6262 77.5922 64.6061 77.2942 64.5248C76.9963 64.4435 76.7178 64.3028 76.4756 64.1111C76.2334 63.9195 76.0325 63.6808 75.8849 63.4095C75.7374 63.1381 75.6462 62.8398 75.6169 62.5323L77.3506 59.2797Z" fill="#FBC6BF"/>
<path d="M81.7724 59.089C81.7724 59.089 81.7724 59.1447 81.7724 59.1526C80.0784 59.3196 78.8697 60.4887 77.8836 61.777C78.0165 61.6522 78.1748 61.5575 78.3477 61.4996C78.5207 61.4417 78.7041 61.4219 78.8854 61.4416C79.0667 61.4612 79.2416 61.5198 79.3981 61.6134C79.5546 61.707 79.6891 61.8333 79.7922 61.9838C79.7922 61.9838 79.7921 62.0712 79.7285 62.0474C79.4903 61.8928 79.211 61.8139 78.9271 61.821C78.6433 61.8281 78.3682 61.9209 78.138 62.0872C77.7473 62.3783 77.3899 62.7116 77.0724 63.0812C76.961 63.1926 76.7384 63.0812 76.8338 62.9063C77.3507 60.934 79.6411 58.6755 81.7724 59.089Z" fill="#263238"/>
<path d="M71.1316 90.5095C60.2604 88.4419 39.0508 79.185 35.7425 76.7674C28.8079 71.7096 14.6363 46.8338 15.861 42.8336C16.5211 40.6308 35.4085 39.8276 37.3331 41.3465C39.2576 42.8654 47.6715 61.5143 48.7451 63.0333C49.8187 64.5522 71.1794 78.8351 75.8794 82.9148C84.341 90.2948 78.2095 91.8615 71.1316 90.5095Z" fill="#FBC6BF"/>
<path d="M36.029 48.2259C36.029 48.2259 40.0053 41.0685 42.391 36.297C43.7112 33.6249 45.5721 28.8295 45.6357 26.4198C45.747 22.8173 43.8861 7.67551 40.2041 8.04928C36.8719 8.38329 40.1166 21.187 40.1166 21.187C40.1166 21.187 37.9853 7.97771 34.0408 9.12288C30.0963 10.2681 35.7029 24.2328 35.7029 24.2328C35.7029 24.2328 33.2057 10.7134 29.3408 12.5266C26.4142 13.9024 30.7723 26.8413 30.7723 26.8413C30.7723 26.8413 28.5455 15.2305 25.4679 16.5029C22.0721 17.9185 25.3486 30.1257 25.3486 30.1257C18.0878 34.7064 15.1772 37.9113 15.8054 43.6452C15.8611 44.5915 36.029 48.2259 36.029 48.2259Z" fill="#FBC6BF"/>
<path d="M41.4764 26.7935C41.2776 25.2029 41.0947 23.6124 40.7607 22.1173C40.4267 20.6222 40.037 19.0476 39.5678 17.5446C38.9829 15.5753 38.1828 13.6764 37.182 11.8823C38.7725 15.1906 40.0211 20.6859 40.3631 22.2207C40.705 23.7556 41.1106 25.2745 41.4446 26.8094C41.4287 26.8491 41.4764 26.8332 41.4764 26.7935Z" fill="#263238"/>
<path d="M35.9415 28.0979C35.6075 26.1177 35.3451 24.1215 34.9236 22.1652C34.5021 20.2089 33.8182 17.4811 33.2694 15.5566C33.2217 15.4134 32.9911 15.4134 33.0309 15.5566C33.508 17.497 34.0727 20.3281 34.526 22.2606C34.9793 24.1931 35.5121 26.1415 35.8938 28.1058C35.9017 28.1456 35.9494 28.1297 35.9415 28.0979Z" fill="#263238"/>
<path d="M31.3925 30.0699C30.9567 27.0181 30.2051 24.0198 29.1499 21.1232C29.1022 20.9801 29.0306 21.0755 29.0704 21.2266C29.8656 24.1929 30.5257 26.5071 31.2971 30.0858C31.2971 30.1415 31.4005 30.1335 31.3925 30.0699Z" fill="#263238"/>
<path d="M17.4597 52.3689L41.3812 45.1479C41.3812 45.1479 47.8944 60.9577 48.9282 62.3654C49.962 63.773 73.1519 78.9147 77.7803 82.7161C82.4087 86.5174 81.6453 93.635 71.7045 91.7344C63.1316 90.0961 39.894 80.6007 35.5519 77.698C31.2098 74.7953 17.4597 52.3689 17.4597 52.3689Z" fill="#455A64"/>
<path d="M66.734 74.875L57.835 87.4163C55.1152 86.4063 52.3238 85.3168 49.6597 84.2352L59.7118 70.0796C61.9942 71.6303 64.4197 73.2845 66.734 74.875Z" fill="#37474F"/>
<path d="M22.6924 57.061C25.9689 56.1783 39.2417 52.0668 42.049 50.9773C42.2478 50.9057 42.2478 50.7626 42.049 50.8182C32.1639 53.204 25.8496 55.8999 22.6765 56.9338C22.581 56.9576 22.6129 57.0849 22.6924 57.061Z" fill="#263238"/>
<path d="M59.0438 87.8457C62.9584 88.7216 66.7739 89.9926 70.4319 91.6391C66.5172 90.7632 62.7017 89.4922 59.0438 87.8457Z" fill="#263238"/>
<path d="M66.3602 90.3267C67.2271 90.8038 68.42 91.3923 69.2391 91.9172C68.6722 91.8785 68.1206 91.7161 67.6233 91.4413C67.1259 91.1665 66.6947 90.786 66.3602 90.3267Z" fill="#263238"/>
<path d="M77.7801 82.7162C75.5488 81.5994 73.5174 80.1215 71.768 78.3423C73.9997 79.4584 76.0313 80.9364 77.7801 82.7162Z" fill="#263238"/>
</svg>
