<svg width="19" height="18" viewBox="0 0 19 18" fill="none" xmlns="http://www.w3.org/2000/svg">
<path d="M16.25 6C17.0784 6 17.75 6.67157 17.75 7.5V10.5C17.75 11.3284 17.0784 12 16.25 12H15.4536C15.0845 14.9597 12.5597 17.25 9.5 17.25V15.75C11.9853 15.75 14 13.7353 14 11.25V6.75C14 4.26472 11.9853 2.25 9.5 2.25C7.01472 2.25 5 4.26472 5 6.75V12H2.75C1.92157 12 1.25 11.3284 1.25 10.5V7.5C1.25 6.67157 1.92157 6 2.75 6H3.54642C3.91549 3.04027 6.44029 0.75 9.5 0.75C12.5597 0.75 15.0845 3.04027 15.4536 6H16.25ZM6.31958 11.8387L7.11469 10.5665C7.80621 10.9997 8.62385 11.25 9.5 11.25C10.3762 11.25 11.1938 10.9997 11.8853 10.5665L12.6805 11.8387C11.7584 12.4162 10.6682 12.75 9.5 12.75C8.3318 12.75 7.24161 12.4162 6.31958 11.8387Z" fill="white"/>
</svg>
