<svg width="85" height="215" viewBox="0 0 85 215" fill="none" xmlns="http://www.w3.org/2000/svg">
<path d="M40.1013 46.2075C40.1013 46.2075 18.7008 43.2173 23.703 17.3872C23.703 17.3872 47.6086 22.7791 40.1013 46.2075Z" fill="#80BCFF"/>
<path opacity="0.1" d="M40.1013 46.2075C40.1013 46.2075 18.7008 43.2173 23.703 17.3872C23.703 17.3872 47.6086 22.7791 40.1013 46.2075Z" fill="black"/>
<path d="M39.0197 40.8158C38.5982 39.5116 38.1052 38.2312 37.5644 36.9668C37.5644 36.7998 37.5644 36.6407 37.5087 36.4817C37.5087 36.1238 37.4451 35.7659 37.4212 35.416C37.3576 34.6207 37.3099 33.8732 37.2622 33.1018C37.1747 31.559 37.0713 30.0082 37.0475 28.4654C37.0475 28.3859 36.9202 28.3859 36.9202 28.4654C36.9202 30.0082 36.9202 31.551 36.9202 33.1018C36.9202 33.8971 36.9918 34.6446 37.0475 35.416C37.0475 35.583 37.0475 35.758 37.0475 35.925C35.8496 33.353 34.4145 30.8983 32.761 28.5927C32.0507 27.5686 31.2889 26.5812 30.4786 25.6343C29.6197 24.6561 28.7211 23.7257 27.8622 22.7634C27.8065 22.6998 27.7111 22.7634 27.7668 22.8588C29.3053 24.5597 30.6867 26.3962 31.8942 28.3461C32.5463 29.3323 33.1613 30.3396 33.7392 31.3681L33.5404 31.2886C33.2859 31.1852 33.0393 31.0739 32.7451 30.9785L31.0035 30.3184C29.8503 29.8889 28.7052 29.4754 27.56 29.038C27.4884 29.038 27.4407 29.1335 27.5123 29.1573C28.6495 29.6106 29.7788 30.0878 30.9001 30.5729L32.5542 31.2886L33.3495 31.6306C33.5316 31.7216 33.7238 31.791 33.9221 31.8373C34.3515 32.6326 34.781 33.4279 35.1706 34.2231C36.1698 36.2213 37.0436 38.2797 37.7871 40.3864C37.8427 40.5295 37.8904 40.6806 37.9381 40.8238C37.3767 40.4998 36.7919 40.218 36.1886 39.9808L33.9698 38.9708C32.4747 38.2869 30.9796 37.5871 29.5402 36.768C29.4686 36.7282 29.405 36.8475 29.4845 36.8872C30.9478 37.6825 32.3952 38.5414 33.8664 39.3446C34.5981 39.7422 35.3376 40.1399 36.0931 40.4977C36.7183 40.866 37.3972 41.1343 38.1052 41.293C38.82 43.2502 39.2901 45.2883 39.5048 47.3608C39.7434 50.2794 39.7195 53.2299 39.7832 56.1564C39.7832 56.2041 39.8627 56.2041 39.8627 56.1564C40.0774 53.5003 40.1967 50.8202 40.2126 48.1481C40.2102 45.6559 39.8074 43.1803 39.0197 40.8158Z" fill="#263238"/>
<path d="M35.7273 25.6261C35.5208 27.1357 35.4489 28.6607 35.5125 30.183H35.5762C35.6636 28.672 35.6795 27.161 35.8545 25.658C35.8625 25.5784 35.7352 25.5466 35.7273 25.6261Z" fill="#263238"/>
<path d="M29.6039 26.9226C28.6478 26.5559 27.7268 26.1034 26.8523 25.5707C26.7886 25.5229 26.7171 25.6422 26.7886 25.682C27.6454 26.2603 28.5835 26.7079 29.5721 27.0101C29.5828 27.0115 29.5937 27.0091 29.6029 27.0035C29.6122 26.9979 29.6192 26.9892 29.6229 26.9791C29.6266 26.9689 29.6267 26.9577 29.6233 26.9475C29.6198 26.9372 29.613 26.9285 29.6039 26.9226Z" fill="#263238"/>
<path d="M40.817 87.1954C40.817 84.8096 40.7534 82.4636 40.7296 80.1017C40.6819 72.2445 40.6182 64.3953 40.4751 56.546C40.3637 50.3112 40.2179 44.0763 40.0377 37.8415C40.0354 37.8257 40.0301 37.8106 40.0219 37.7969C40.0137 37.7832 40.0028 37.7714 39.99 37.762C39.99 36.0601 39.99 34.3583 39.99 32.6564C39.99 32.6564 39.9423 32.5928 39.8866 32.5928C39.8309 32.5928 39.7832 32.5928 39.7832 32.6643C39.7832 34.3662 39.7832 36.0707 39.7832 37.7779C39.7698 37.7847 39.7583 37.7949 39.7499 37.8074C39.7416 37.8199 39.7366 37.8344 39.7355 37.8495C39.4253 48.9831 39.139 60.0372 39.0754 71.1391C39.0754 73.3897 39.0754 75.6482 39.0754 77.9068C39.0012 85.133 38.9747 92.3672 38.9959 99.6094C38.9959 100.763 38.9959 101.908 38.9959 103.061C38.9959 109.685 39.0595 116.302 39.0675 122.942C39.0675 123.3 39.4572 123.475 39.8627 123.491C40.2683 123.507 40.8568 123.324 40.8568 122.919C40.8568 115.618 40.9045 108.318 40.9045 101.017C40.817 96.4204 40.817 91.8159 40.817 87.1954Z" fill="#263238"/>
<path d="M31.8464 80.0383C31.8464 80.0383 21.5557 72.4118 11.7899 77.5651C2.02411 82.7184 0.489258 102.584 0.489258 102.584C0.489258 102.584 14.804 104.628 23.862 96.031C32.5701 87.7444 31.8464 80.0383 31.8464 80.0383Z" fill="#80BCFF"/>
<path d="M34.6539 80.4994C32.7618 79.7463 30.7128 79.4731 28.6895 79.7041C28.2744 79.6299 27.8544 79.5874 27.4329 79.5769L25.9776 79.4656L22.9795 79.2588C20.9516 79.1077 18.9157 78.9804 16.8878 78.7737C16.8737 78.7786 16.8616 78.7877 16.853 78.7998C16.8444 78.8119 16.8397 78.8264 16.8397 78.8413C16.8397 78.8561 16.8444 78.8706 16.853 78.8827C16.8616 78.8949 16.8737 78.904 16.8878 78.9089C18.8918 79.1633 20.8641 79.4497 22.9 79.6485C23.9338 79.7519 24.9676 79.8632 26.0094 79.9348L26.757 80.0063C26.4548 80.0779 26.1446 80.1495 25.8504 80.237C24.2333 80.7054 22.6689 81.3397 21.1822 82.1297C20.3869 82.2728 19.5917 82.5035 18.7964 82.6943C17.524 82.9886 16.2516 83.3226 14.9871 83.6486C12.49 84.3087 10.0167 85.0403 7.53551 85.764C7.45598 85.764 7.5355 85.9072 7.57526 85.8913C10.0565 85.2789 12.5456 84.7222 15.0269 84.1337L18.6453 83.2669L19.5917 83.0442C16.8275 84.7589 14.3571 86.907 12.2753 89.4063C10.2687 91.8669 8.56279 94.558 7.19354 97.4225C7.19354 97.5021 7.26512 97.5737 7.30488 97.4941C8.99498 94.5481 11.0615 91.8346 13.4522 89.4222C13.4125 89.5574 13.3648 89.6926 13.325 89.8278C13.1262 90.4402 12.9433 91.0446 12.7524 91.649C12.3707 92.8578 11.9572 94.0745 11.6231 95.2912C11.6231 95.3708 11.7186 95.3946 11.7504 95.2912C12.1798 94.1143 12.5934 92.9055 13.0069 91.7524L13.6193 90.0107L13.9294 89.1121L14.0248 88.8337C15.174 87.7205 16.3933 86.6819 17.6751 85.7243C19.3705 84.4744 21.2036 83.4231 23.1385 82.5909C23.1385 82.7738 23.0749 82.9488 23.0351 83.1158C22.9318 83.585 22.8284 84.0542 22.7329 84.5234C22.5341 85.5016 22.3433 86.4797 22.1524 87.4579C21.7627 89.4461 21.5241 91.4342 21.1504 93.4542C21.1504 93.5337 21.2617 93.5655 21.2776 93.4542C21.7389 91.4501 22.3353 89.4779 22.7807 87.4738C23.0033 86.4718 23.226 85.4618 23.4407 84.4598L23.727 83.0442C23.7747 82.7818 23.8384 82.5194 23.8702 82.249L24.4269 82.0183C27.1307 81.0243 30.113 80.2926 32.9918 80.8493C34.353 81.1028 35.6306 81.6884 36.7113 82.5541C37.792 83.4197 38.6423 84.5387 39.1869 85.8117C39.2744 86.0344 39.6322 85.8992 39.5766 85.6686C38.9801 83.2908 36.9125 81.4537 34.6539 80.4994Z" fill="#263238"/>
<path d="M18.8997 88.9848C18.6028 90.2891 18.3139 91.5933 18.0329 92.8975C17.7046 94.1465 17.4628 95.4166 17.3092 96.6989C17.3092 96.7545 17.3808 96.7545 17.3967 96.6989C17.7716 95.4443 18.0639 94.1665 18.2715 92.8737C18.526 91.5854 18.7725 90.297 19.027 89.0087C19.0429 88.9371 18.9156 88.9053 18.8997 88.9848Z" fill="#263238"/>
<path d="M8.94305 92.3011C7.63882 92.9612 6.3664 93.7167 4.96674 94.2654C4.95544 94.2663 4.94457 94.2701 4.93525 94.2765C4.92593 94.283 4.9185 94.2918 4.91373 94.3021C4.90897 94.3124 4.90704 94.3238 4.90814 94.3351C4.90924 94.3463 4.91334 94.3571 4.92001 94.3663C4.92667 94.3755 4.93567 94.3827 4.94606 94.3872C4.95645 94.3917 4.96787 94.3934 4.97912 94.392C4.99037 94.3907 5.00105 94.3863 5.01006 94.3794C5.01907 94.3725 5.02608 94.3634 5.03037 94.3529C6.39055 93.7562 7.71788 93.0872 9.00667 92.3489C9.00667 92.3489 9.00667 92.2852 8.94305 92.3011Z" fill="#263238"/>
<path d="M34.1608 66.0253C34.1608 66.0253 21.5877 66.8206 15.7346 58.534C9.88144 50.2473 11.1936 38.3979 11.1936 38.3979C11.1936 38.3979 24.4109 39.9885 29.6516 45.9609C34.8924 51.9333 34.1608 66.0253 34.1608 66.0253Z" fill="#80BCFF"/>
<path d="M40.0694 78.4478C39.6321 77.1039 39.0913 75.7758 38.5823 74.4715C38.0733 73.1673 37.5723 71.9506 36.9918 70.7099C35.8677 68.1742 34.6094 65.7001 33.2222 63.2981C32.3395 61.7712 31.3852 60.2841 30.407 58.8208C30.407 58.5981 30.3434 58.3755 30.3036 58.1528C30.248 57.7631 30.1923 57.3575 30.1287 56.9838C30.0094 56.1885 29.8662 55.3932 29.731 54.598C29.4448 52.8643 29.0869 51.1386 28.8085 49.397C28.8085 49.3174 28.6654 49.3174 28.6813 49.397C28.9358 51.1068 29.1028 52.8325 29.3493 54.5503C29.4607 55.3932 29.572 56.2442 29.6992 57.0871L29.8424 57.9937C27.9266 55.1881 25.8502 52.4956 23.6234 49.9298C23.3212 49.5799 23.0111 49.2379 22.7089 48.8959C22.7089 48.8005 22.6294 48.7051 22.5896 48.6097C22.4942 48.3711 22.4067 48.1325 22.3192 47.8939C22.1284 47.3929 21.9534 46.8919 21.7705 46.3909C21.4206 45.4047 21.1025 44.4107 20.8321 43.4007C20.8321 43.3212 20.6889 43.353 20.7128 43.4007C20.9593 44.4266 21.2297 45.4604 21.5081 46.4783C21.6592 46.9714 21.8182 47.4565 21.9932 47.9416C21.9932 48.0212 22.0488 48.1007 22.0806 48.1882C20.4901 46.4306 18.7962 44.7447 17.1023 43.0746C17.0896 43.063 17.0729 43.0569 17.0558 43.0577C17.0386 43.0584 17.0225 43.0659 17.0109 43.0786C16.9993 43.0913 16.9932 43.108 16.9939 43.1252C16.9946 43.1423 17.0022 43.1585 17.0148 43.1701C20.2656 46.5705 23.2437 50.2214 25.9217 54.089C25.6169 53.9899 25.3062 53.9103 24.9913 53.8504C24.0211 53.6596 23.0509 53.5244 22.0727 53.4051C20.0209 53.1426 17.9771 52.8802 15.9333 52.5621C15.8537 52.5621 15.8219 52.6734 15.9333 52.6893C17.8817 53.071 19.8141 53.4846 21.7546 53.9538C22.6691 54.1606 23.5837 54.3435 24.4982 54.5264C25.2484 54.6862 25.987 54.8961 26.7091 55.1546C26.9158 55.4409 27.1226 55.7272 27.3214 56.0215C28.2439 57.3655 29.1346 58.7413 30.0014 60.1171L28.7131 59.8706C27.7429 59.6797 26.7727 59.5047 25.7945 59.3457C23.8779 59.0276 21.9534 58.6936 20.0607 58.2641C20.0438 58.2641 20.0276 58.2708 20.0157 58.2828C20.0038 58.2947 19.9971 58.3109 19.9971 58.3277C19.9971 58.3446 20.0038 58.3608 20.0157 58.3727C20.0276 58.3846 20.0438 58.3914 20.0607 58.3914C21.9852 58.8447 23.8859 59.3695 25.7945 59.8785C26.717 60.125 27.6475 60.3477 28.5779 60.5545L29.9776 60.8567C30.1625 60.9058 30.3515 60.9378 30.5422 60.9521C32.3819 63.937 34.1023 66.9828 35.7035 70.0896C36.4033 71.4575 37.0793 72.8386 37.7314 74.233C38.4074 75.6644 38.9799 77.1198 39.6002 78.5671C39.7116 78.8773 40.1649 78.758 40.0694 78.4478Z" fill="#263238"/>
<path d="M27.1943 49.5316C26.9557 48.3308 26.7012 47.1458 26.399 45.937C26.399 45.8575 26.2559 45.8973 26.2797 45.937C26.5183 47.114 26.741 48.3228 26.9557 49.4839C27.1345 50.6696 27.3734 51.8454 27.6714 53.0069C27.5942 51.8387 27.4347 50.6774 27.1943 49.5316Z" fill="#263238"/>
<path d="M19.854 49.1818C19.2735 48.8875 18.6532 48.6569 18.0488 48.3865L17.0945 48.0127L16.6094 47.8218C16.4232 47.7664 16.2444 47.689 16.0765 47.5912C15.9811 47.5197 15.9175 47.6867 16.0129 47.7026C16.2017 47.7505 16.3834 47.8227 16.5537 47.9173L17.0308 48.132L17.9454 48.5376C18.5507 48.8203 19.1721 49.0672 19.8063 49.2772C19.8779 49.3329 19.9256 49.2136 19.854 49.1818Z" fill="#263238"/>
<path d="M47.0361 56.1804C47.0361 56.1804 54.6547 41.9214 66.2655 39.7185C77.8763 37.5157 84.9303 49.4287 84.9303 49.4287C84.9303 49.4287 76.4846 60.2204 65.844 62.1051C55.2034 63.9899 47.0361 56.1804 47.0361 56.1804Z" fill="#80BCFF"/>
<path d="M73.9955 46.0885C70.9786 45.6881 67.9197 45.7256 64.9136 46.1998L65.4225 45.9215L67.9992 44.6014C69.7598 43.6225 71.5701 42.736 73.4229 41.9452C73.4311 41.9555 73.4423 41.9629 73.455 41.9666C73.4677 41.9702 73.4812 41.9698 73.4936 41.9654C73.506 41.9611 73.5168 41.953 73.5244 41.9422C73.5321 41.9315 73.5362 41.9186 73.5362 41.9054C73.5362 41.8922 73.5321 41.8794 73.5244 41.8686C73.5168 41.8579 73.506 41.8498 73.4936 41.8454C73.4812 41.841 73.4677 41.8406 73.455 41.8443C73.4423 41.8479 73.4311 41.8554 73.4229 41.8657C71.6097 42.7086 69.7329 43.4562 67.9117 44.2514C67.0051 44.665 66.1065 45.1024 65.2237 45.5716C64.6511 45.8738 64.0229 46.1601 63.4582 46.5259C60.9156 47.0359 58.4451 47.8558 56.1021 48.9673L57.5494 47.3768C58.631 46.1919 59.6887 44.9513 60.8736 43.8777C60.9373 43.822 60.8737 43.7345 60.7782 43.7902C59.5694 44.8876 58.2891 45.9056 57.1121 47.0508C56.5395 47.6074 55.9987 48.18 55.4659 48.7765C55.2034 49.0707 54.933 49.3729 54.6706 49.691C50.6935 51.8203 47.2378 54.8047 44.5522 58.4295C41.8666 62.0542 40.0179 66.2293 39.1392 70.6541C39.1392 70.7336 39.2425 70.7814 39.2664 70.7018C40.8955 65.2809 43.8155 60.3361 47.7757 56.2917C52.0348 51.9436 57.3991 48.8394 63.2912 47.3132C66.7878 46.4231 70.4038 46.0956 74.0034 46.343C74.0371 46.3419 74.0691 46.3275 74.0922 46.3029C74.1153 46.2783 74.1277 46.2455 74.1267 46.2118C74.1256 46.178 74.1112 46.1461 74.0866 46.1229C74.062 46.0998 74.0292 46.0874 73.9955 46.0885Z" fill="#263238"/>
<path opacity="0.1" d="M84.8983 49.4363C84.8983 49.4363 76.4527 60.22 65.8121 62.1048C57.7084 63.5363 51.0361 59.3134 48.3163 57.2298L47.7278 56.2676C47.7278 56.2676 53.2151 51.6471 63.5854 48.983C73.9556 46.3189 84.8983 49.4363 84.8983 49.4363Z" fill="black"/>
<path d="M67.2674 41.0227C66.3776 41.539 65.5174 42.1045 64.6907 42.7166C63.8873 43.3281 63.1419 44.0122 62.464 44.7604C62.4513 44.7731 62.4442 44.7903 62.4442 44.8082C62.4442 44.8261 62.4513 44.8432 62.464 44.8559C62.4766 44.8685 62.4938 44.8756 62.5117 44.8756C62.5296 44.8756 62.5468 44.8685 62.5594 44.8559C63.3547 44.1879 64.1022 43.5198 64.8975 42.8916C65.6738 42.2553 66.4892 41.6683 67.3389 41.1341C67.3537 41.1246 67.3641 41.1096 67.3678 41.0924C67.3715 41.0753 67.3683 41.0574 67.3588 41.0426C67.3493 41.0278 67.3344 41.0174 67.3172 41.0137C67.3001 41.01 67.2821 41.0132 67.2674 41.0227Z" fill="#263238"/>
<path d="M73.6217 43.4558C73.1923 43.6387 72.7549 43.7898 72.3254 43.9727L71.0371 44.5056C70.9417 44.5453 70.9894 44.6964 71.0848 44.6567L72.3732 44.1318C72.8026 43.9568 73.2241 43.758 73.6615 43.5831C73.7331 43.5194 73.7013 43.3922 73.6217 43.4558Z" fill="#263238"/>
<path d="M45.517 74.0341C45.517 74.0341 47.5529 88.142 58.1617 93.0726C68.7705 98.0033 81.6935 93.0726 81.6935 93.0726C81.6935 93.0726 76.6038 62.5426 45.517 74.0341Z" fill="#80BCFF"/>
<path d="M74.385 83.895C73.4068 83.7837 72.4366 83.6167 71.4663 83.4417L70.0428 83.1713C69.8043 83.1236 69.5498 83.0679 69.2953 83.0282C69.0169 82.7578 68.7307 82.4874 68.4364 82.2329C66.4279 80.4644 64.258 78.8881 61.955 77.525C60.6988 76.7843 59.4003 76.1178 58.0662 75.5289H58.265L61.7562 75.68C64.0863 75.7913 66.4085 75.839 68.7386 75.9901C68.8261 75.9901 68.8181 75.8629 68.7386 75.8629C66.4005 75.7038 64.0784 75.4493 61.7483 75.2426L58.3525 74.9404L56.6029 74.7893L56.1576 74.7416C55.5532 74.5189 54.9408 74.3042 54.3285 74.1133C51.4361 73.1215 48.3255 72.9509 45.342 73.6202C42.6779 74.3042 40.0138 76.0458 39.3219 78.861C39.3219 78.9564 39.4491 79.028 39.4889 78.9326C40.483 76.5468 43.0914 75.3937 45.4454 74.9086C47.019 74.6063 48.6326 74.574 50.217 74.8131C50.3304 75.5389 50.5115 76.2524 50.7578 76.9444C51.052 77.9385 51.3383 78.9326 51.6405 79.9187C52.2449 81.8989 52.905 83.895 53.4935 85.8514C53.5004 85.8649 53.512 85.8754 53.526 85.8812C53.5401 85.8869 53.5557 85.8874 53.5701 85.8826C53.5845 85.8778 53.5968 85.868 53.6046 85.855C53.6124 85.8419 53.6153 85.8266 53.6127 85.8116C53.1197 83.8314 52.7061 81.8353 52.229 79.8551C51.9984 78.8769 51.7518 77.9067 51.5053 76.9365C51.3733 76.2546 51.1952 75.5824 50.9725 74.9245C51.9008 75.092 52.8193 75.3097 53.7241 75.5766C55.3507 76.0625 56.9445 76.6521 58.4956 77.342C58.6467 78.3441 58.8774 79.3382 59.108 80.3322C59.3943 81.5808 59.7203 82.8134 60.11 84.0302C60.1145 84.0424 60.1227 84.0529 60.1333 84.0603C60.144 84.0677 60.1567 84.0717 60.1697 84.0717C60.1827 84.0717 60.1953 84.0677 60.206 84.0603C60.2167 84.0529 60.2248 84.0424 60.2293 84.0302L60.1816 83.7996C59.943 82.6465 59.6885 81.4933 59.45 80.3402C59.2511 79.4097 59.0682 78.4793 58.8694 77.5488C60.1895 78.1453 61.4779 78.7894 62.7344 79.5131C62.7344 79.7994 62.8298 80.0937 62.8696 80.3561C62.9491 80.8412 63.0366 81.3184 63.1241 81.8035C63.3229 82.893 63.5376 83.9745 63.8 85.0481C64.2798 87.1302 64.888 89.1806 65.6212 91.1875C65.6133 91.1993 65.6091 91.2132 65.6091 91.2273C65.6091 91.2415 65.6133 91.2553 65.6212 91.2671L65.6768 91.3387C65.7246 91.3864 65.7961 91.3387 65.7882 91.2671C65.2951 89.1755 64.7384 87.1079 64.2772 85.0084C64.0466 83.9586 63.8159 82.9168 63.6092 81.8273C63.4978 81.3025 63.4024 80.7776 63.307 80.2368C63.307 80.0857 63.2513 79.9267 63.2274 79.7676C64.6579 80.6042 66.0387 81.5229 67.3628 82.5192C69.6634 84.2357 71.7939 86.1691 73.7249 88.2928C73.7965 88.3723 73.9476 88.2928 73.876 88.1656C73.0884 87.0929 72.2442 86.0629 71.3471 85.0799C70.8142 84.5074 70.2655 83.9586 69.7009 83.4179H69.8758C70.3689 83.5053 70.8699 83.5769 71.3709 83.6485C72.3491 83.7757 73.3352 83.8711 74.3134 83.9825C74.4406 84.0143 74.4724 83.9109 74.385 83.895Z" fill="#263238"/>
<path d="M66.9335 88.6826C66.9335 88.5554 66.8938 88.4361 66.8779 88.3168C66.862 88.1975 66.7665 88.0066 66.7427 87.8555C66.52 86.9171 66.3371 85.9628 66.1701 85.0085C66.1701 84.9449 66.0508 84.9608 66.0508 85.0085C66.1125 86.2711 66.3812 87.515 66.846 88.6906C66.846 88.6906 66.9256 88.6906 66.9176 88.6906L66.9335 88.6826Z" fill="#263238"/>
<path d="M58.0584 88.4518C58.0564 88.4364 58.0489 88.4222 58.0372 88.4119C58.0254 88.4016 58.0104 88.3961 57.9948 88.3962C57.6926 87.1476 57.4063 85.899 57.1518 84.6346C57.0166 83.9745 56.8814 83.3145 56.7542 82.6544C56.6826 82.2965 56.619 81.9386 56.5553 81.5808C56.5276 81.2656 56.4498 80.9569 56.3247 80.6662C56.3202 80.6541 56.3121 80.6436 56.3014 80.6361C56.2907 80.6287 56.2781 80.6248 56.2651 80.6248C56.2521 80.6248 56.2394 80.6287 56.2288 80.6361C56.2181 80.6436 56.21 80.6541 56.2054 80.6662C56.1964 81.3074 56.2877 81.946 56.4758 82.559C56.6031 83.2508 56.7383 83.9348 56.8894 84.6187C57.1995 86.0104 57.5415 87.4021 57.9391 88.7699C57.9391 88.8415 58.0823 88.8256 58.0743 88.7699C58.0663 88.7143 58.0663 88.5552 58.0584 88.4518Z" fill="#263238"/>
<path d="M73.4227 79.8392C71.4823 79.5688 69.5498 79.2905 67.6094 79.0439C67.5219 79.0439 67.4901 79.1632 67.6094 79.1712C69.5418 79.4575 71.4823 79.6961 73.4227 79.9665C73.4704 79.9744 73.5022 79.8472 73.4227 79.8392Z" fill="#263238"/>
<path d="M40.0853 40.9512C40.0853 40.9512 33.5959 12.4809 64.1896 0.95752C64.1896 0.95752 72.6671 38.4382 40.0853 40.9512Z" fill="#80BCFF"/>
<path d="M46.6862 24.8076L47.0202 24.6008L48.7459 23.6386L52.2928 21.6504C54.6308 20.3462 56.9371 18.9863 59.2831 17.6741C59.3627 17.6741 59.2831 17.523 59.2195 17.5628C56.8337 18.8431 54.4479 20.036 52.0622 21.2925L48.5551 23.1455L47.1236 23.9408C48.1415 22.0083 49.239 20.1076 50.4319 18.2785C52.0224 15.845 53.7799 13.5069 55.609 11.2484C55.6885 11.145 55.5534 11.0098 55.4579 11.1052C52.7744 13.7141 50.3996 16.6226 48.3801 19.7736C48.3801 19.6782 48.3801 19.5748 48.3801 19.4793C48.3801 18.7716 48.4278 18.0638 48.4437 17.356C48.4437 15.9643 48.396 14.5726 48.4437 13.1809C48.4437 13.1013 48.3165 13.1013 48.3165 13.1809C48.2529 14.5487 48.0938 15.9086 48.0143 17.2765C48.0143 17.9604 47.9427 18.6443 47.9268 19.3203C47.9268 19.6941 47.8791 20.1155 47.9268 20.5211C47.2906 21.5232 46.6862 22.5384 46.1136 23.567C45.0914 25.4224 44.1805 27.3371 43.3859 29.3008C43.3859 28.593 43.3063 27.8852 43.2666 27.1775C43.1791 25.5869 42.9882 24.068 42.9166 22.5013C42.9166 22.4218 42.7894 22.4218 42.7894 22.5013C42.7894 24.0918 42.7894 25.6188 42.7894 27.1775C42.7894 27.9727 42.8371 28.768 42.8928 29.5155L42.9405 30.3903C41.9683 32.9317 41.1971 35.5456 40.6342 38.2077C40.1056 41.0545 39.7234 43.9265 39.4891 46.8125C39.4891 46.8125 39.4891 46.8125 39.5288 46.8125C39.837 44.2133 40.3692 41.6457 41.1194 39.1382C41.4931 37.7942 41.9146 36.4582 42.3282 35.1619C43.6006 34.5575 44.8173 33.8099 46.05 33.126C47.2826 32.4421 48.6107 31.7343 49.8831 31.0265C52.4359 29.6269 54.9887 28.2034 57.621 26.9707C57.6926 26.9707 57.621 26.8196 57.5494 26.8594C54.8853 28.0682 52.1973 29.2451 49.5968 30.5255C48.2926 31.1856 47.0043 31.8854 45.7319 32.6012C44.6742 33.1976 43.5847 33.794 42.5508 34.4859C42.8451 33.6032 43.1552 32.7204 43.4972 31.8456C44.4403 29.4471 45.5046 27.0981 46.6862 24.8076Z" fill="#263238"/>
<path d="M44.1093 18.2941C44.1093 18.2066 43.9741 18.2146 43.9821 18.2941C44.0855 19.8846 44.1411 21.5467 44.3161 23.1611C44.3161 23.1801 44.3236 23.1983 44.3371 23.2117C44.3505 23.2251 44.3687 23.2327 44.3877 23.2327C44.4066 23.2327 44.4249 23.2251 44.4383 23.2117C44.4517 23.1983 44.4592 23.1801 44.4592 23.1611C44.4036 21.5308 44.2286 19.9164 44.1093 18.2941Z" fill="#263238"/>
<path d="M58.7741 23.7336C56.8655 24.5288 54.933 25.2366 53.0244 26.0319C52.9687 26.0319 53.0244 26.1432 53.0244 26.1194C54.9648 25.3957 56.8655 24.6084 58.79 23.8529C58.8934 23.829 58.8536 23.7018 58.7741 23.7336Z" fill="#263238"/>
<path d="M61.6847 10.596C59.815 11.4598 57.9986 12.4344 56.2451 13.5146C56.2324 13.5286 56.2247 13.5463 56.2229 13.5651C56.2212 13.5839 56.2255 13.6027 56.2354 13.6188C56.2452 13.6349 56.26 13.6474 56.2775 13.6544C56.295 13.6614 56.3143 13.6626 56.3326 13.6577C58.106 12.616 59.9112 11.6219 61.7562 10.7073C61.8278 10.6755 61.7563 10.5642 61.6847 10.596Z" fill="#263238"/>
<path d="M61.2236 102.528H17.1025V149.035H61.2236V102.528Z" fill="#455A64"/>
<path d="M16.323 118.982H14.0645V214.549H16.323V118.982Z" fill="#263238"/>
<path d="M64.0229 118.982H61.7643V214.549H64.0229V118.982Z" fill="#263238"/>
<path d="M41.3737 118.982H39.1152V214.549H41.3737V118.982Z" fill="#263238"/>
<path d="M62.8935 146.053H15.1937V152.495H62.8935V146.053Z" fill="#263238"/>
</svg>
